<svg width="140" height="141.73" xmlns="http://www.w3.org/2000/svg">
 <style type="text/css">.st0{fill:#232323;stroke:#232323;stroke-miterlimit:10;}</style>

 <g>
  <title>background</title>
  <rect fill="none" id="canvas_background" height="402" width="582" y="-1" x="-1"/>
 </g>
 <g>
  <title>Layer 1</title>
  <g stroke="null" id="svg_1">
   <path stroke="null" id="svg_2" d="m103.020917,140.717208l-66.041836,0c-6.591668,0 -11.94566,-5.367898 -11.94566,-11.94566l0,-115.8131c0,-6.591668 5.367898,-11.94566 11.94566,-11.94566l66.041836,0c6.591668,0 11.94566,5.367898 11.94566,11.94566l0,115.799194c0,6.591668 -5.353992,11.959566 -11.94566,11.959566zm-66.041836,-136.408585c-4.76992,0 -8.649826,3.879906 -8.649826,8.649826l0,115.799194c0,4.76992 3.879906,8.649826 8.649826,8.649826l66.041836,0c4.76992,0 8.649826,-3.879906 8.649826,-8.649826l0,-115.799194c0,-4.76992 -3.879906,-8.649826 -8.649826,-8.649826l-66.041836,0z" class="st0"/>
   <rect stroke="null" id="svg_3" height="19.914068" width="3.30974" class="st0" y="50.307835" x="40.135176"/>
  </g>
 </g>
</svg>