<svg width="28" height="40" viewBox="0 0 28 40" fill="none" xmlns="http://www.w3.org/2000/svg">
<path d="M8 38V40H4V38C2.93913 38 1.92172 37.5786 1.17157 36.8284C0.421427 36.0783 0 35.0609 0 34V4C0 2.93913 0.421427 1.92172 1.17157 1.17157C1.92172 0.421427 2.93913 0 4 0H24C25.0609 0 26.0783 0.421427 26.8284 1.17157C27.5786 1.92172 28 2.93913 28 4V34C28 35.0609 27.5786 36.0783 26.8284 36.8284C26.0783 37.5786 25.0609 38 24 38V40H20V38H8ZM4 4V14H24V4H4ZM4 34H24V18H4V34ZM6 20H10V26H6V20ZM6 8H10V12H6V8Z" fill="#D1A655"/>
</svg>
