<svg width="141.73" height="141.73" xmlns="http://www.w3.org/2000/svg">
 <style type="text/css">.st0{fill:#232323;stroke:#232323;stroke-miterlimit:10;}</style>

 <g>
  <title>background</title>
  <rect fill="none" id="canvas_background" height="402" width="582" y="-1" x="-1"/>
 </g>
 <g>
  <title>Layer 1</title>
  <g stroke="null" id="svg_1">
   <rect stroke="null" id="svg_2" height="2.975989" width="47.415762" class="st0" y="53.857974" x="25.481443"/>
   <rect stroke="null" id="svg_3" height="2.975989" width="47.415762" class="st0" y="90.632698" x="25.481443"/>
   <rect stroke="null" id="svg_4" height="18.868772" width="2.975989" class="st0" y="49.519031" x="101.631756"/>
   <path stroke="null" id="svg_5" d="m126.790119,16.195454l-34.83658,-14.854938l-11.666378,0c-2.100698,0 -3.813768,1.713069 -3.813768,3.813768l0,131.418685c0,2.313269 1.875623,4.188892 4.188892,4.188892l11.291253,0l35.186696,-11.178716c2.438311,-0.862787 4.076355,-3.18856 4.076355,-5.77692l0,-100.908543c0,-2.925973 -1.738078,-5.551845 -4.426471,-6.702228zm-34.83658,121.590418l-11.291253,0c-0.675224,0 -1.212903,-0.550183 -1.212903,-1.212903l0,-131.418685c0,-0.462654 0.375125,-0.837778 0.837778,-0.837778l11.666378,0l0,133.469367zm36.287062,-13.979647c0,1.337945 -0.850283,2.538344 -2.100698,2.975989l-31.222879,9.753242l0,-130.705948l30.697704,13.104356c1.588028,0.675224 2.613369,2.238244 2.613369,3.963818l0,100.908543l0.012504,0z" class="st0"/>
   <path stroke="null" id="svg_6" d="m69.921215,126.544635l-12.866777,0l-34.936613,0c-4.288926,0 -7.777585,-3.48866 -7.777585,-7.777585l0,-91.818021c0,-4.288926 3.48866,-7.777585 7.777585,-7.777585l34.936613,0l12.866777,0l2.975989,0l0,-2.975989l-50.77938,0c-5.92697,0 -10.74107,4.826604 -10.74107,10.74107l0,91.830526c0,5.92697 4.826604,10.74107 10.74107,10.74107l50.766876,0l0,-2.975989l-2.963485,0.012504l0,0z" class="st0"/>
  </g>
 </g>
</svg>