<svg width="18" height="17" viewBox="0 0 18 17" fill="none" xmlns="http://www.w3.org/2000/svg">
<path d="M11.0353 10.4756C10.6753 11.2383 9.89906 11.8125 9 11.8125C8.38594 11.8125 7.73437 11.5781 7.42359 11.355C7.13766 11.1502 6.75 11.25 6.75 11.7188V14.625C6.74913 14.9231 6.63033 15.2087 6.41954 15.4195C6.20875 15.6303 5.9231 15.7491 5.625 15.75V15.75C5.3269 15.7491 5.04125 15.6303 4.83046 15.4195C4.61967 15.2087 4.50087 14.9231 4.5 14.625V12H4.40625C2.74922 12 1.5 10.657 1.5 9C1.5 8.20435 1.81607 7.44129 2.37868 6.87868C2.94129 6.31607 3.70435 6 4.5 6H4.875V5.625C4.875 4.53098 5.3096 3.48177 6.08318 2.70818C6.85677 1.9346 7.90598 1.5 9 1.5C10.094 1.5 11.1432 1.9346 11.9168 2.70818C12.6904 3.48177 13.125 4.53098 13.125 5.625V6H13.5C14.2956 6 15.0587 6.31607 15.6213 6.87868C16.1839 7.44129 16.5 8.20435 16.5 9C16.5 9.79565 16.1839 10.5587 15.6213 11.1213C15.0587 11.6839 14.2956 12 13.5 12C12.4791 12 11.5313 11.3906 11.0348 10.4761L11.0353 10.4756Z" stroke="#D1A655" stroke-width="2" stroke-linecap="round" stroke-linejoin="round"/>
</svg>
